<svg xmlns="http://www.w3.org/2000/svg" xmlns:xlink="http://www.w3.org/1999/xlink" viewBox="0 0 24 24" version="1.1">
  <path d="M 5 0 L 5 2 L 7 2 L 7 0 Z M 9 0 L 9 2 L 11 2 L 11 0 Z M 13 0 L 13 2 L 15 2 L 15 0 Z M 17 0 L 17 2 L 19 2 L 19 0 Z M 3 3 L 3 21 L 21 21 L 21 3 Z M 0 5 L 0 7 L 2 7 L 2 5 Z M 6.5 5 C 7.300781 5 8 5.699219 8 6.5 C 8 7.300781 7.300781 8 6.5 8 C 5.699219 8 5 7.300781 5 6.5 C 5 5.699219 5.699219 5 6.5 5 Z M 22 5 L 22 7 L 24 7 L 24 5 Z M 0 9 L 0 11 L 2 11 L 2 9 Z M 22 9 L 22 11 L 24 11 L 24 9 Z M 0 13 L 0 15 L 2 15 L 2 13 Z M 22 13 L 22 15 L 24 15 L 24 13 Z M 17.5 16 C 18.300781 16 19 16.699219 19 17.5 C 19 18.300781 18.300781 19 17.5 19 C 16.699219 19 16 18.300781 16 17.5 C 16 16.699219 16.699219 16 17.5 16 Z M 0 17 L 0 19 L 2 19 L 2 17 Z M 22 17 L 22 19 L 24 19 L 24 17 Z M 5 22 L 5 24 L 7 24 L 7 22 Z M 9 22 L 9 24 L 11 24 L 11 22 Z M 13 22 L 13 24 L 15 24 L 15 22 Z M 17 22 L 17 24 L 19 24 L 19 22 Z " fill="#C3FDDB"></path>
</svg>
